<svg width="161" height="105" viewBox="0 0 161 105" fill="none" xmlns="http://www.w3.org/2000/svg">
<g clip-path="url(#clip0_1647_24318)">
<path d="M104.097 18.2849C104.039 18.2095 103.981 18.1341 103.919 18.0609C102.992 16.9429 101.7 16.2256 100.255 16.0231C98.7843 15.8184 97.32 16.1739 96.1116 17.0226C94.1463 14.6014 90.5899 14.1554 88.085 16.0532C87.913 16.1825 87.7517 16.3203 87.599 16.4647C87.4915 16.5659 87.3905 16.6715 87.2937 16.7792C87.3044 16.7964 87.3152 16.8115 87.3281 16.8287L94.1485 26.0203L94.3205 25.8911C94.6817 25.6239 103.128 19.3318 103.394 19.1315C103.685 18.9117 103.949 18.6683 104.186 18.4077C104.158 18.3667 104.127 18.3258 104.097 18.2849Z" fill="#003366"/>
<path d="M104.527 10.9607C103.59 9.71559 102.224 8.91427 100.685 8.69885C99.2142 8.49421 97.75 8.84964 96.5416 9.69836C94.5763 7.27713 91.0199 6.83123 88.515 8.72901C86.0079 10.6246 85.4682 14.2263 87.2937 16.7789C87.3044 16.7962 87.3152 16.8112 87.3281 16.8285L94.1484 26.0201L94.3204 25.8908C94.6817 25.6237 103.128 19.3315 103.394 19.1312C103.684 18.9115 103.949 18.6681 104.185 18.4074C106.039 16.374 106.245 13.2354 104.527 10.9607ZM103.919 18.0606C103.684 18.3256 103.422 18.569 103.134 18.7866C102.891 18.9718 95.4708 24.4971 94.2366 25.4169L87.6742 16.5721C87.6484 16.5377 87.6226 16.501 87.599 16.4644C85.9605 14.1035 86.4744 10.8142 88.7751 9.07151C89.747 8.33697 90.8866 7.98153 92.0198 7.98153C93.6539 7.98153 95.2708 8.72039 96.3287 10.1249L96.4577 10.2972L96.6297 10.1658C99.0014 8.37142 102.392 8.84318 104.185 11.2192C105.054 12.3716 105.422 13.7912 105.224 15.2215C105.076 16.2943 104.622 17.2722 103.919 18.0606Z" fill="#3F3D56"/>
<path d="M150.843 21.9733L149.439 21.7579C149.245 20.7713 148.959 19.7998 148.587 18.8649C148.747 19.774 148.686 20.7196 148.424 21.6028L133.306 19.2871C134.046 16.0301 134.465 12.9864 134.216 10.3821C133.844 6.47449 136.734 2.95682 140.649 2.81896C140.757 2.81466 140.866 2.8125 140.976 2.8125C144.603 2.8125 147.598 4.93645 148.035 7.68079C148.19 8.66306 148.407 9.63673 148.587 10.6168C149.265 14.2875 152.099 19.1794 150.843 21.9733Z" fill="#2F2E41"/>
<path d="M111.104 27.8158C111.592 28.0186 111.993 28.3148 112.266 28.6435L117.033 30.2808L116.189 32.5307L111.444 30.6276C111.019 30.6662 110.526 30.5907 110.039 30.3879C108.925 29.9248 108.26 28.9736 108.554 28.2633C108.848 27.553 109.99 27.3527 111.104 27.8158Z" fill="#FFB6B6"/>
<path d="M126.434 100.039L124.549 100.084L123.498 91.5972L126.28 91.5312L126.434 100.039Z" fill="#FFB7B7"/>
<path d="M119.965 103.978C119.965 104.298 120.191 104.556 120.47 104.556H124.213C124.213 104.556 124.581 103.073 126.083 102.435L126.186 104.556H128.117L127.883 101.145C127.883 101.145 128.399 99.3199 127.327 98.387C126.254 97.4541 127.123 97.584 127.123 97.584L126.701 95.4727L123.784 95.8164L123.762 99.1306L122.346 102.42L120.27 103.448C120.085 103.54 119.965 103.748 119.965 103.978Z" fill="#2F2E41"/>
<path d="M146.703 100.039L144.818 100.084L143.767 91.5972L146.549 91.5312L146.703 100.039Z" fill="#FFB7B7"/>
<path d="M140.234 103.978C140.234 104.298 140.46 104.556 140.739 104.556H144.482C144.482 104.556 144.85 103.073 146.352 102.435L146.455 104.556H148.386L148.152 101.145C148.152 101.145 148.669 99.3199 147.596 98.387C146.523 97.4541 147.392 97.584 147.392 97.584L146.97 95.4727L144.053 95.8164L144.031 99.1306L142.616 102.42L140.539 103.448C140.354 103.54 140.234 103.748 140.234 103.978Z" fill="#2F2E41"/>
<path d="M131.491 38.3438L143.102 40.2825C144.625 42.8032 147.618 52.3455 147.618 52.3455C147.618 52.3455 146.834 78.8546 147.504 94.1919L142.672 94.3507L136.222 60.1003L127.621 93.489L122.929 93.8217L123.536 70.0092C123.536 70.0092 130.019 38.6388 131.491 38.3438Z" fill="#2F2E41"/>
<path d="M136.972 17.1875L142.885 17.3726L148.982 25.5174C146.617 31.5042 144.393 35.827 144.49 40.0958C144.499 40.4575 145.087 41.2699 145.135 41.6037C145.201 42.0548 144.345 42.7166 144.49 43.1116L130.201 40.0682C130.49 39.6596 130.241 39.1433 130.416 38.7757C130.57 38.4526 131.16 38.2752 131.231 37.9618C131.618 36.2697 131.825 33.4465 130.369 30.1312C129.333 27.7738 133.891 22.2744 133.646 19.5939L136.972 17.1875Z" fill="#E6E6E6"/>
<path d="M138.328 20.9901L127.451 35.6981L114.702 32.181L115.256 28.849L124.965 30.6911L130.381 22.3496C132.149 18.9247 135.635 18.235 138.328 20.9901Z" fill="#E6E6E6"/>
<path d="M139.73 15.3092C142.563 15.3092 144.859 13.0084 144.859 10.1702C144.859 7.33204 142.563 5.03125 139.73 5.03125C136.897 5.03125 134.6 7.33204 134.6 10.1702C134.6 13.0084 136.897 15.3092 139.73 15.3092Z" fill="#FFB7B7"/>
<path d="M144.5 56.2923C144.644 55.7834 144.891 55.3494 145.185 55.0398L146.253 50.1055L148.582 50.6835L147.248 55.6266C147.335 56.0449 147.318 56.5442 147.174 57.053C146.844 58.2155 145.979 58.9875 145.24 58.7774C144.502 58.5674 144.17 57.4547 144.5 56.2923Z" fill="#FFB6B6"/>
<path d="M144.822 20.168C144.822 20.168 149.122 19.9486 149.435 22.8051C149.748 25.6616 150.75 41.9303 150.75 41.9303L148.428 52.9113L145.117 52.4504L146.58 38.4727L144.822 20.168Z" fill="#E6E6E6"/>
<path d="M144.945 5.80125C144.945 6.96231 144.302 8.45726 144.302 10.2129L142.352 9.7045C142.313 9.36415 142.115 8.30001 142.027 7.96829C142.072 8.28063 142.169 9.32969 142.062 9.62695L141.105 9.37707C141.098 9.19828 141.083 9.01949 141.062 8.84286C141.023 8.5025 140.959 8.16646 140.87 7.83473C140.916 8.14707 140.879 8.46804 140.772 8.76531C140.709 8.92901 140.627 9.08412 140.524 9.22628L135.802 7.99198C134.659 7.56082 134.484 9.07816 134.502 10.984C134.502 10.984 133.857 4.3063 138.759 3.9207L139.499 3.17969C143.952 3.43603 144.945 4.36015 144.945 5.80125Z" fill="#2F2E41"/>
<path d="M134.434 12.125C134.61 13.9185 134.396 15.7229 134.141 17.5088C134.059 18.0836 133.968 18.6719 133.662 19.1836C133.356 19.6953 132.788 20.1226 132.136 20.1358C133.161 20.413 134.342 20.1701 135.125 19.5211C135.92 18.8623 136.27 17.8637 136.297 16.8976C136.323 15.9314 136.063 14.9794 135.803 14.0408L134.434 12.125Z" fill="#2F2E41"/>
<path d="M143.797 5.21484C143.973 8.48468 143.759 11.7744 143.504 15.0305C143.422 16.0784 143.331 17.1511 143.025 18.084C142.719 19.0169 142.151 19.7958 141.499 19.82C142.524 20.3253 143.705 19.8824 144.488 18.6992C145.283 17.4981 145.633 15.6775 145.66 13.9161C145.687 12.1547 145.426 10.4189 145.166 8.70775L143.797 5.21484Z" fill="#2F2E41"/>
<path d="M34.7631 102.704L37.8495 102.704L39.3177 90.7773L34.7625 90.7777L34.7631 102.704Z" fill="#A0616A"/>
<path d="M45.3375 102.633C45.4336 102.795 45.4843 103.319 45.4843 103.507C45.4843 104.087 45.0153 104.557 44.4367 104.557H34.8785C34.4838 104.557 34.1639 104.236 34.1639 103.841V103.442C34.1639 103.442 33.691 102.244 34.6645 100.767C34.6645 100.767 35.8745 101.923 37.6824 100.112L38.2155 99.1445L42.0747 101.972L44.2138 102.236C44.6818 102.294 45.0967 102.227 45.3375 102.633Z" fill="#2F2E41"/>
<path d="M25.3024 102.704L28.3888 102.704L29.857 90.7773L25.3018 90.7777L25.3024 102.704Z" fill="#A0616A"/>
<path d="M35.8768 102.633C35.9729 102.795 36.0236 103.319 36.0236 103.507C36.0236 104.087 35.5546 104.557 34.976 104.557H25.4178C25.0231 104.557 24.7032 104.236 24.7032 103.841V103.442C24.7032 103.442 24.2303 102.244 25.2038 100.767C25.2038 100.767 26.4138 101.923 28.2217 100.112L28.7548 99.1445L32.614 101.972L34.7531 102.236C35.2211 102.294 35.636 102.227 35.8768 102.633Z" fill="#2F2E41"/>
<path d="M25.8102 42.974L23.875 73.7778L24.8426 97.5451H30.8648L34.6259 57.1911L33.7904 97.5451L39.3563 97.473L45.2693 51.0519C45.2693 51.0519 45.1618 46.2051 43.3341 43.7279C41.5065 41.2507 25.8102 42.974 25.8102 42.974Z" fill="#2F2E41"/>
<path d="M48.2181 35.8867L43.3708 36.078L43.937 41.5022L53.4399 48.6813L54.73 46.7426L47.9062 38.8707L48.2181 35.8867Z" fill="#A0616A"/>
<path d="M39.0336 15.9392L32.3681 15.293L27.4227 17.6625V37.2649L25.8501 40.559C25.3437 41.6199 25.2904 42.8416 25.7025 43.9426L43.334 43.7272L42.904 41.3577L43.764 36.8341L44.4091 20.2474L39.0336 15.9392Z" fill="#E6E6E6"/>
<path d="M43.0115 20.1402C43.0115 20.1402 44.5166 18.6323 45.5917 22.5097C46.6668 26.3871 49.247 40.1734 49.247 40.1734L43.119 40.2811L41.5063 25.5255L43.0115 20.1402Z" fill="#E6E6E6"/>
<path d="M25.81 36.7266L25.165 52.6356L22.7998 52.8824L21.9397 37.1574L25.81 36.7266Z" fill="#A0616A"/>
<path d="M29.8954 17.773C29.8954 17.773 26.0251 16.2651 24.95 20.1425C23.8749 24.0199 21.2947 37.8062 21.2947 37.8062L26.0251 38.1463L31.4005 23.1583L29.8954 17.773Z" fill="#E6E6E6"/>
<path d="M35.5166 14.0644C38.7644 14.0644 41.3974 11.4266 41.3974 8.17281C41.3974 4.91899 38.7644 2.28125 35.5166 2.28125C32.2687 2.28125 29.6357 4.91899 29.6357 8.17281C29.6357 11.4266 32.2687 14.0644 35.5166 14.0644Z" fill="#A0616A"/>
<path d="M24.1131 57.427C25.0943 57.3936 25.8441 56.0244 25.788 54.3688C25.7318 52.7133 24.8909 51.3983 23.9097 51.4317C22.9285 51.4651 22.1786 52.8343 22.2348 54.4898C22.2909 56.1454 23.1319 57.4604 24.1131 57.427Z" fill="#A0616A"/>
<path d="M58.0503 51.0585C58.7103 50.3305 58.2532 48.8374 57.0292 47.7237C55.8052 46.61 54.2778 46.2974 53.6178 47.0254C52.9577 47.7535 53.4149 49.2466 54.6389 50.3603C55.8629 51.474 57.3902 51.7866 58.0503 51.0585Z" fill="#A0616A"/>
<path d="M40.0731 3.1016C39.4898 2.1825 39.0888 2.55432 38.0075 2.44088C37.3878 2.37587 36.2285 1.40007 35.6216 1.5413C34.8215 1.72746 34.0015 1.92213 33.3202 2.38171C31.8758 1.53044 31.3621 3.19665 30.1097 4.31213C28.8572 5.4276 28.4325 7.37783 29.1072 8.91459C29.4286 9.64641 29.404 10.423 29.9266 11.0272C30.5283 11.7228 30.8598 12.6909 30.9062 12.7445C31.1565 13.034 32.336 13.2372 32.3841 13.2928C32.8563 13.8387 33.6173 13.6705 34.0895 14.2164L34.3618 11.3281C33.9795 10.9763 33.5838 10.6052 33.4055 10.1168C33.2271 9.62846 33.3453 8.98885 33.8034 8.74415C34.1636 8.55168 34.6456 8.63822 34.9594 8.37665C35.4386 7.97739 35.143 7.1422 35.4918 6.62481C35.698 6.31889 36.0806 6.19577 36.4345 6.09288C37.0081 5.92611 37.5816 5.75935 38.1552 5.59259C38.6887 5.43745 39.2367 5.28073 39.7905 5.32501C40.3443 5.3693 40.9139 5.65875 41.1327 6.17036C40.9309 5.10017 40.6564 4.0207 40.0731 3.1016Z" fill="#2F2E41"/>
<path d="M60.0787 40.1319C59.3493 38.2489 57.2343 37.3149 55.3548 38.0456C53.4931 38.7694 52.5617 40.855 53.253 42.7244L53.1985 42.7456L55.8399 49.5645L62.1031 47.1294C62.3102 47.0884 62.5166 47.03 62.7202 46.9508C64.5997 46.22 65.5321 44.1012 64.8027 42.2182C64.0732 40.3352 61.9583 39.4012 60.0787 40.1319Z" fill="#003366"/>
<path d="M111.065 3.66199V26.4956C111.065 28.5148 109.425 30.1576 107.409 30.1576H84.6175C82.6019 30.1576 80.9622 28.5148 80.9622 26.4956V3.66199C80.9622 1.64272 82.6019 0 84.6175 0H107.409C109.425 0 111.065 1.64272 111.065 3.66199ZM107.409 29.7267C109.191 29.7267 110.635 28.2801 110.635 26.4956V14.9838C110.635 6.94641 104.131 0.430822 96.1082 0.430822C87.9808 0.430822 81.3922 7.03145 81.3922 15.1737V26.4956C81.3922 28.2801 82.8362 29.7267 84.6175 29.7267H107.409Z" fill="#3F3D56"/>
<path d="M106.187 8.23381C104.198 7.90476 102.319 9.25352 101.991 11.2463C101.665 13.2203 102.984 15.0848 104.942 15.4398L104.932 15.4976L112.136 16.6892L113.23 10.0485C113.3 9.84909 113.355 9.64132 113.391 9.42544C113.719 7.43262 112.373 5.55035 110.384 5.2213C108.394 4.89225 106.516 6.24098 106.187 8.23381Z" fill="#003366"/>
<path d="M82.4406 24.1905C81.7111 22.3075 79.5961 21.3734 77.7166 22.1042C75.8549 22.828 74.9235 24.9136 75.6148 26.783L75.5603 26.8042L78.2017 33.6231L84.4649 31.188C84.672 31.147 84.8784 31.0886 85.082 31.0094C86.9615 30.2786 87.8939 28.1598 87.1645 26.2768C86.4351 24.3938 84.3201 23.4597 82.4406 24.1905Z" fill="#003366"/>
<path d="M139.223 48.6097C137.252 48.1818 135.309 49.4351 134.881 51.4091C134.458 53.3643 135.682 55.2922 137.62 55.7445L137.608 55.8018L144.743 57.3514L146.166 50.7736C146.246 50.5779 146.312 50.3732 146.358 50.1593C146.785 48.1854 145.534 46.2383 143.564 45.8103C141.593 45.3824 139.65 46.6357 139.223 48.6097Z" fill="#003366"/>
<path d="M16.8822 101.17C16.438 101.198 16.1925 100.645 16.5286 100.322L16.562 100.189C16.5576 100.179 16.5532 100.168 16.5487 100.157C16.0995 99.0841 14.577 99.0915 14.1316 100.166C13.7363 101.12 13.233 102.076 13.109 103.084C13.0535 103.529 13.0785 103.983 13.1771 104.42C12.2508 102.393 11.7633 100.179 11.7633 97.953C11.7633 97.3937 11.7939 96.8344 11.8564 96.2765C11.9078 95.8202 11.9786 95.3666 12.0702 94.9172C12.566 92.488 13.6396 90.1742 15.188 88.2417C15.9324 87.834 16.5532 87.1968 16.9282 86.433C17.0629 86.1575 17.1684 85.8611 17.2184 85.5592C17.1337 85.5704 16.899 84.2778 16.9629 84.1985C16.8448 84.0191 16.6335 83.9298 16.5046 83.7547C15.8633 82.8837 14.9798 83.0358 14.5186 84.2194C13.5334 84.7176 13.5238 85.5438 14.1284 86.3384C14.513 86.8439 14.5659 87.5279 14.9033 88.0692C14.8686 88.1137 14.8325 88.1568 14.7978 88.2013C14.1611 89.0194 13.6104 89.8988 13.1462 90.8226C13.2774 89.7959 13.0837 88.559 12.7535 87.7617C12.3776 86.8532 11.6731 86.0881 11.0526 85.3028C10.3074 84.3594 8.77915 84.7711 8.64786 85.9669C8.64659 85.9785 8.64535 85.9901 8.64413 86.0017C8.73629 86.0537 8.82657 86.1091 8.91476 86.1675C9.4178 86.5008 9.24395 87.282 8.64791 87.3742L8.63441 87.3763C8.66775 87.7088 8.72469 88.0385 8.80801 88.3627C8.01206 91.4465 9.73046 92.5697 12.1841 92.6201C12.2383 92.648 12.291 92.6758 12.3452 92.7022C12.0966 93.4034 11.898 94.1228 11.7508 94.8518C11.6189 95.496 11.5272 96.1471 11.4758 96.801C11.4119 97.6261 11.4175 98.4553 11.487 99.279L11.4828 99.2497C11.3064 98.3426 10.8148 97.4953 10.101 96.9082C9.03756 96.033 7.53518 95.7108 6.38797 95.0073C5.83573 94.6687 5.12808 95.1063 5.22446 95.7477L5.22915 95.7784C5.39997 95.848 5.56662 95.9287 5.72772 96.0191C5.81987 96.0712 5.91015 96.1265 5.99835 96.185C6.50138 96.5183 6.32753 97.2995 5.73149 97.3917L5.71799 97.3937C5.70827 97.3951 5.69993 97.3965 5.69022 97.3979C5.98326 98.095 6.39154 98.7419 6.90261 99.2998C7.4003 101.992 9.53788 102.247 11.8244 101.463H11.8258C12.0758 102.554 12.441 103.62 12.9104 104.636H16.7851C16.799 104.592 16.8115 104.548 16.824 104.505C16.4657 104.527 16.1046 104.506 15.7519 104.441C16.0393 104.087 16.3268 103.731 16.6143 103.378C16.6212 103.371 16.6268 103.364 16.6323 103.357C16.7782 103.176 16.9254 102.997 17.0712 102.816L17.0713 102.815C17.0804 102.26 17.0138 101.707 16.8822 101.17Z" fill="#F2F2F2"/>
<path d="M0.268129 104.998H160.732C160.88 104.998 161 104.878 161 104.73C161 104.581 160.88 104.461 160.732 104.461H0.268129C0.120049 104.461 0 104.581 0 104.73C0 104.878 0.120049 104.998 0.268129 104.998Z" fill="#E6E6E6"/>
</g>
<defs>
<clipPath id="clip0_1647_24318">
<rect width="161" height="105" fill="white"/>
</clipPath>
</defs>
</svg>
