<svg width="162" height="119" viewBox="0 0 162 119" fill="none" xmlns="http://www.w3.org/2000/svg">
<g clip-path="url(#clip0_1969_25424)">
<path d="M0 72.1066C0 72.248 0.117355 72.3616 0.263493 72.3616H161.737C161.883 72.3616 162 72.248 162 72.1066C162 71.9652 161.883 71.8516 161.737 71.8516H0.263493C0.117355 71.8516 0 71.9652 0 72.1066Z" fill="#3F3D56"/>
<path d="M103.396 17.989L104.244 28.4795L116.523 23.5154L109.596 12.8457L103.396 17.989Z" fill="#A0616A"/>
<path d="M103.028 21.1849C108.083 21.1849 112.181 17.2186 112.181 12.3258C112.181 7.43313 108.083 3.4668 103.028 3.4668C97.9729 3.4668 93.875 7.43313 93.875 12.3258C93.875 17.2186 97.9729 21.1849 103.028 21.1849Z" fill="#A0616A"/>
<path d="M85.9047 94.9247L87.4546 108.38L76.6055 106.926L80.148 94.4961L85.9047 94.9247Z" fill="#A0616A"/>
<path d="M128.194 96.8524L129.744 110.308L118.895 108.854L122.437 96.4238L128.194 96.8524Z" fill="#A0616A"/>
<path d="M102.399 56.2422C102.251 56.2422 90.4106 56.8176 82.5879 57.1986C78.8853 57.3789 76.0669 60.4807 76.3541 64.0582L79.1509 98.8888L87.1217 99.1031L87.3161 71.0292L103.063 71.8864L102.399 56.2422Z" fill="#2F2E41"/>
<path d="M137.16 56.0278C137.16 56.0278 139.153 70.8148 137.603 72.315C136.053 73.8151 87.4531 71.1363 87.4531 71.1363C87.4531 71.1363 98.1149 56.2342 100.035 55.8095C101.956 55.3849 132.51 53.8848 132.51 53.8848L137.16 56.0278Z" fill="#2F2E41"/>
<path d="M74.2007 37.4102C72.3499 34.9048 72.1853 31.9497 73.8328 30.8099C75.4803 29.6701 78.3156 30.7773 80.1667 33.2838C80.9203 34.2752 81.4177 35.4269 81.6172 36.6425L89.3206 47.3538L84.9366 50.2915L77.0157 39.8261C75.8915 39.2499 74.9262 38.4215 74.2007 37.4102Z" fill="#A0616A"/>
<path d="M102.953 24.6313L114.245 20.1309L135.501 51.848C135.501 51.848 120.666 55.0625 115.574 55.7054C110.481 56.3484 104.724 53.7767 104.724 53.7767L102.953 24.6313Z" fill="#003366"/>
<path d="M116.68 29.9903L112.584 17.623L117.898 21.5252C117.898 21.5252 132.954 31.169 132.954 35.2408C132.954 39.3125 137.603 51.7422 137.603 51.7422C137.603 51.7422 142.807 55.9212 141.035 59.7786C139.264 63.6361 143.36 63.1004 143.803 65.8863C144.246 68.6723 137.493 72.4226 137.493 72.4226C137.493 72.4226 135.832 56.6712 130.518 56.6712C125.204 56.6712 116.68 29.9903 116.68 29.9903Z" fill="#3F3D56"/>
<path d="M103.746 24.3164L98.192 26.4542C98.192 26.4542 99.0777 41.4556 99.9633 42.7414C100.849 44.0272 103.949 50.885 103.949 50.885V53.12C103.949 53.12 97.7492 54.9568 97.9706 56.0283C98.192 57.0998 112.584 60.1001 112.584 60.1001C112.584 60.1001 109.705 51.5279 107.934 48.7419C106.163 45.956 103.746 24.3164 103.746 24.3164Z" fill="#3F3D56"/>
<path d="M100.186 26.453C100.186 26.453 93.765 25.5958 92.6579 32.8821C91.5508 40.1685 92.2543 41.1328 92.2543 41.1328L90.4438 45.3118L84.4657 38.8826L78.709 42.5258C78.709 42.5258 89.1153 58.813 93.3221 58.3844C97.5289 57.9558 103.728 46.169 103.728 46.169L100.186 26.453Z" fill="#3F3D56"/>
<path d="M132.254 58.3938L128.969 103.389L120.444 103.068C120.444 103.068 118.562 60.5285 118.562 59.8856C118.562 59.2427 119.448 55.5995 124.983 55.3852C130.519 55.1709 132.254 58.3938 132.254 58.3938Z" fill="#2F2E41"/>
<path d="M119.891 104.247C119.891 104.247 124.319 102.961 124.983 103.818C125.648 104.675 129.412 105.104 129.412 105.104L130.519 115.605C130.519 115.605 127.419 117.748 126.976 118.177C126.533 118.605 114.798 119.034 114.577 116.462C114.356 113.89 117.677 110.676 117.677 110.676L119.891 104.247Z" fill="#2F2E41"/>
<path d="M87.3425 101.246C87.3425 101.246 88.6709 100.175 89.1138 103.175C89.5566 106.175 91.1065 111.104 88.8924 111.747C86.6782 112.39 64.5371 112.604 64.5371 110.676V108.747L66.5298 107.247L70.5161 106.632C70.5161 106.632 78.2646 99.7461 79.1503 99.7461C80.0359 99.7461 82.9142 102.532 82.9142 102.532L87.3425 101.246Z" fill="#2F2E41"/>
<path d="M112.032 17.1313C112.032 17.1313 107.603 11.988 105.832 12.4166C104.061 12.8452 105.168 13.4881 105.168 13.4881L100.74 8.77345C100.74 8.77345 97.197 7.48762 93.8759 11.5594C93.8759 11.5594 91.8832 8.13053 93.8759 6.20179C95.8686 4.27305 96.5328 4.48735 96.9756 3.41583C97.4185 2.3443 100.518 1.48708 100.518 1.48708C100.518 1.48708 100.34 -0.0552343 101.315 0.715924C102.29 1.48708 104.723 1.48708 104.723 1.48708C104.723 1.48708 104.737 0.629866 105.727 1.48708C106.718 2.3443 107.825 1.91569 107.825 1.91569C107.825 1.91569 107.825 3.39895 108.6 3.40739C109.375 3.41583 110.703 2.3443 110.925 3.20152C111.146 4.05874 112.696 4.48735 112.917 7.05901C113.139 9.63066 112.032 17.1313 112.032 17.1313Z" fill="#2F2E41"/>
<path d="M75.9446 38.8287L50.6514 55.7217C49.7786 56.3046 48.5785 56.0916 47.9762 55.2468L40.8553 45.2583C40.253 44.4135 40.4731 43.252 41.3459 42.669L66.6391 25.776C67.5119 25.1931 68.712 25.4061 69.3143 26.2509L76.4353 36.2394C77.0375 37.0842 76.8174 38.2457 75.9446 38.8287Z" fill="white"/>
<path d="M69.266 26.2811L76.3869 36.2695C76.9728 37.0914 76.7598 38.2157 75.9107 38.7828L63.4975 47.0734C60.2238 46.2076 57.2366 44.2628 55.1586 41.348C53.7974 39.4387 52.977 37.3251 52.6641 35.1742L66.6694 25.8202C67.5185 25.2531 68.6801 25.4593 69.266 26.2811Z" fill="#E6E6E6"/>
<path d="M49.5616 56.2638C48.8799 56.2638 48.2089 55.9508 47.7931 55.3679L40.6721 45.3793C40.3473 44.9235 40.2254 44.372 40.3289 43.826C40.4323 43.28 40.7486 42.8062 41.2195 42.4918L66.5125 25.5988C67.4862 24.949 68.8242 25.1867 69.4957 26.1283L76.6168 36.1169C76.9416 36.5727 77.0635 37.1242 76.9599 37.6702C76.8566 38.216 76.5403 38.69 76.0695 39.0044L50.7763 55.8974C50.4053 56.145 49.9813 56.2638 49.5616 56.2638ZM67.7279 25.6608C67.3949 25.6608 67.0585 25.7551 66.7642 25.9517L41.471 42.8447C41.0974 43.0939 40.8466 43.47 40.7644 43.9034C40.6822 44.3367 40.7789 44.7745 41.0366 45.1357L48.1577 55.1243C48.6904 55.8714 49.7523 56.0604 50.5246 55.5445L75.8181 38.6515C76.1915 38.4023 76.4423 38.0262 76.5245 37.5928C76.6066 37.1595 76.51 36.7217 76.2523 36.3605L69.1312 26.3719C68.8015 25.9094 68.2689 25.6608 67.7279 25.6608Z" fill="#3F3D56"/>
<path d="M49.7446 51.2756C49.1035 51.7037 48.9419 52.5568 49.3842 53.1773C49.8266 53.7977 50.7079 53.9542 51.349 53.5261L53.9531 51.7868C54.5941 51.3587 54.7557 50.5056 54.3134 49.8851C53.8711 49.2647 52.9897 49.1082 52.3487 49.5364L49.7446 51.2756Z" fill="#003366"/>
<path d="M51.509 37.3403C50.4976 38.0158 50.2426 39.3618 50.9405 40.3408C51.6384 41.3197 53.0289 41.5666 54.0404 40.891L58.0912 38.1856C59.1026 37.51 59.3577 36.1641 58.6598 35.1852C57.9618 34.2062 56.5712 33.9593 55.5598 34.6348L51.509 37.3403Z" fill="#003366"/>
<path d="M75.3372 40.3195H44.6068C43.5463 40.3195 42.6836 39.4845 42.6836 38.4581V26.3224C42.6836 25.2959 43.5463 24.4609 44.6068 24.4609H75.3372C76.3976 24.4609 77.2604 25.2959 77.2604 26.3224V38.4581C77.2604 39.4845 76.3976 40.3195 75.3372 40.3195Z" fill="white"/>
<path d="M77.2042 26.3224V38.458C77.2042 39.4565 76.3692 40.2648 75.3375 40.2648H60.2559C58.0695 37.7526 56.752 34.5098 56.752 30.9684C56.752 28.6487 57.3169 26.458 58.3215 24.5156H75.3376C76.3692 24.5156 77.2042 25.3239 77.2042 26.3224Z" fill="#E6E6E6"/>
<path d="M75.3379 40.5333H44.6076C43.4251 40.5333 42.4629 39.6022 42.4629 38.4576V26.3218C42.4629 25.1772 43.4251 24.2461 44.6076 24.2461H75.3379C76.5204 24.2461 77.4826 25.1772 77.4826 26.3218V38.4576C77.4826 39.6022 76.5204 40.5333 75.3379 40.5333ZM44.6076 24.6747C43.6692 24.6747 42.9057 25.4135 42.9057 26.3218V38.4576C42.9057 39.3659 43.6692 40.1046 44.6076 40.1046H75.3379C76.2763 40.1046 77.0398 39.3659 77.0398 38.4576V26.3218C77.0398 25.4135 76.2763 24.6747 75.3379 24.6747H44.6076Z" fill="#3F3D56"/>
<path d="M46.4691 36.1621C45.6903 36.1621 45.0566 36.7754 45.0566 37.5292C45.0566 38.2831 45.6903 38.8963 46.4691 38.8963H49.633C50.4118 38.8963 51.0454 38.2831 51.0454 37.5292C51.0454 36.7754 50.4118 36.1621 49.633 36.1621H46.4691Z" fill="#003366"/>
<path d="M56.0996 25.6641C54.8708 25.6641 53.8711 26.6317 53.8711 27.8211C53.8711 29.0105 54.8708 29.9781 56.0996 29.9781H61.0212C62.2501 29.9781 63.2498 29.0105 63.2498 27.8211C63.2498 26.6317 62.2501 25.6641 61.0212 25.6641H56.0996Z" fill="#003366"/>
<path d="M101.021 82.3234H70.2904C69.2299 82.3234 68.3672 81.4884 68.3672 80.462V68.3263C68.3672 67.2999 69.2299 66.4648 70.2904 66.4648H101.021C102.081 66.4648 102.944 67.2999 102.944 68.3263V80.462C102.944 81.4884 102.081 82.3234 101.021 82.3234Z" fill="white"/>
<path d="M102.888 68.3263V80.4619C102.888 81.4605 102.053 82.2687 101.021 82.2687H85.9395C83.7531 79.7565 82.4355 76.5137 82.4355 72.9723C82.4355 70.6526 83.0005 68.4619 84.0051 66.5195H101.021C102.053 66.5195 102.888 67.3278 102.888 68.3263Z" fill="#E6E6E6"/>
<path d="M101.022 82.5372H70.2912C69.1087 82.5372 68.1465 81.6061 68.1465 80.4615V68.3257C68.1465 67.1811 69.1087 66.25 70.2912 66.25H101.022C102.204 66.25 103.166 67.1811 103.166 68.3257V80.4615C103.166 81.6061 102.204 82.5372 101.022 82.5372ZM70.2912 66.6786C69.3528 66.6786 68.5893 67.4174 68.5893 68.3257V80.4615C68.5893 81.3698 69.3528 82.1086 70.2912 82.1086H101.022C101.96 82.1086 102.723 81.3698 102.723 80.4615V68.3257C102.723 67.4174 101.96 66.6786 101.022 66.6786H70.2912Z" fill="#3F3D56"/>
<path d="M72.1527 78.166C71.3738 78.166 70.7402 78.7793 70.7402 79.5331C70.7402 80.287 71.3738 80.9002 72.1527 80.9002H75.3166C76.0954 80.9002 76.729 80.287 76.729 79.5331C76.729 78.7793 76.0954 78.166 75.3166 78.166H72.1527Z" fill="#003366"/>
<path d="M81.7832 67.668C80.5544 67.668 79.5547 68.6356 79.5547 69.825C79.5547 71.0144 80.5544 71.982 81.7832 71.982H86.7048C87.9337 71.982 88.9334 71.0144 88.9334 69.825C88.9334 68.6356 87.9337 67.668 86.7048 67.668H81.7832Z" fill="#003366"/>
<path d="M103.105 71.4378C100.283 72.8603 97.2369 72.6037 96.3019 70.8651C95.3669 69.1264 96.897 66.5644 99.7206 65.1418C100.84 64.5586 102.088 64.2434 103.36 64.2226L115.397 58.3418L117.787 62.955L105.971 69.0787C105.224 70.0753 104.242 70.8843 103.105 71.4378Z" fill="#A0616A"/>
<path d="M116.791 21.3108C116.791 21.3108 129.19 20.6679 131.847 27.0971C134.504 33.5262 136.718 54.5281 136.718 54.5281L109.706 68.7523L105.057 61.8144L123.212 48.0989L116.791 21.3108Z" fill="#3F3D56"/>
</g>
<defs>
<clipPath id="clip0_1969_25424">
<rect width="162" height="118" fill="white" transform="translate(0 0.5)"/>
</clipPath>
</defs>
</svg>
