<svg width="332" height="170" viewBox="0 0 332 170" fill="none" xmlns="http://www.w3.org/2000/svg">
<g clip-path="url(#clip0_1647_24222)">
<path d="M317.263 93.984L316.223 102.28L313.642 122.886H261.789C262.194 118.267 262.747 111.62 263.339 104.444C263.397 103.727 263.458 103.006 263.516 102.28C264.999 84.2411 266.622 63.8281 266.622 63.8281L273.439 65.1003L286.665 67.564L292.055 68.5674L306.487 71.2596C313.683 72.599 318.633 83.0362 317.263 93.984Z" fill="#F2F2F2"/>
<path d="M278.041 30.4492L284.418 41.6275L272.162 50.3285L266.934 36.5882L278.041 30.4492Z" fill="#FFB6B6"/>
<path d="M269.923 41.0248C278.648 41.0248 285.72 33.9397 285.72 25.1999C285.72 16.46 278.648 9.375 269.923 9.375C261.199 9.375 254.126 16.46 254.126 25.1999C254.126 33.9397 261.199 41.0248 269.923 41.0248Z" fill="#FFB6B6"/>
<path d="M268.789 28.7378C267.534 26.8254 268.027 25.8252 266.977 25.1224C266.977 25.1224 266.554 24.8396 263.53 24.6783C262.853 19.7963 262.007 19.2043 262.007 19.2043C261.033 18.5219 259.587 18.7436 258.688 19.1609C256.786 20.0436 257.006 21.9502 255.726 22.315C253.956 22.819 250.737 19.9778 250.42 16.7251C250.161 14.0718 251.868 11.4948 252.545 11.6312C253.216 11.7663 254.822 9.71158 255.69 9.74327C256.282 9.76491 258.703 8.71095 259.354 8.79335C260.065 8.88336 262.41 10.1091 262.508 9.82906C263.187 7.88299 262.987 7.34303 263.563 6.78631C264.584 5.79978 266.254 6.48677 268.874 6.85559C274.265 7.61443 275.206 5.83384 277.968 7.04074C279.364 7.6504 280.531 9.2946 282.81 12.5581C285.996 17.1221 287.589 19.4041 287.6 22.0657C287.61 24.78 286.298 24.6077 285.722 28.6261C285.08 33.0993 286.443 35.1446 284.954 36.5979C283.803 37.721 281.464 37.9877 280.235 37.0019C278.13 35.3142 280.884 31.2419 278.555 28.2666C277.126 26.4402 274.251 25.6276 272.934 26.5304C271.445 27.5512 272.265 30.5473 271.218 30.8315C270.322 31.0748 269.007 29.0711 268.789 28.7378Z" fill="#2F2E41"/>
<path d="M305.587 91.0624C305.147 98.6095 303.397 100.992 302.784 109.905C302.65 111.862 302.569 114.134 302.569 116.842C302.569 117.533 302.573 118.201 302.573 118.853C302.573 120.242 302.546 121.554 302.385 122.885C302.263 123.948 302.052 125.019 301.704 126.147H267.681C267.677 126.139 267.677 126.131 267.673 126.124C267.474 125.257 267.347 124.428 267.252 123.634C267.221 123.38 267.194 123.131 267.171 122.885C267.141 122.598 267.114 122.314 267.087 122.034C266.983 120.917 266.88 119.862 266.635 118.853C266.306 117.46 265.708 116.148 264.482 114.882C263.981 114.364 263.479 113.961 262.989 113.608C262.893 113.543 262.801 113.477 262.705 113.412C261.349 112.48 260.066 111.808 258.955 109.905C258.936 109.878 258.921 109.848 258.906 109.821C258.714 109.487 258.216 108.612 257.856 107.446C257.477 106.233 257.247 104.71 257.661 103.152C258.645 99.4614 262.292 99.093 265.271 95.3635C265.593 94.9607 265.911 94.5156 266.214 94.0206C267.562 91.8258 267.926 89.8922 268.355 87.5938C268.423 87.2215 268.485 86.8532 268.535 86.4965C268.573 86.2278 268.607 85.9631 268.634 85.7022C268.872 83.5113 268.757 81.6236 268.477 79.9354C267.566 74.4064 264.877 70.9839 266.777 66.0227C267.374 64.4651 268.221 63.2948 269.075 62.2934C270.882 60.1715 272.74 58.7941 272.419 56.0547C272.093 53.2921 270.002 52.9121 269.768 50.4987C269.649 49.2787 270.048 47.9933 270.794 46.731V46.7272C273.185 42.6638 279.152 38.9229 282.944 39.0418C283.645 39.0611 284.265 39.2183 284.782 39.5214C286.655 40.6264 285.874 43.0398 288.743 46.4241C290.876 48.9372 293.289 49.9425 294.204 50.4182C297.831 52.3137 300.781 57.904 302.784 65.0521C302.799 65.1059 302.814 65.1594 302.83 65.2171C304.067 69.6948 304.94 74.7786 305.373 79.9354C305.557 82.1186 305.664 84.3133 305.687 86.4849C305.706 88.2192 305.668 89.7234 305.587 91.0624Z" fill="#003366"/>
<path d="M280.11 116.92L279.416 118.853L278.98 120.066L277.968 122.886L276.796 126.147H269.262L270.526 122.886L271.112 121.366L272.085 118.853L273.717 114.633L280.11 116.92Z" fill="#FFB6B6"/>
<path d="M302.903 64.3931C302.884 64.6427 302.857 64.9188 302.83 65.2182C302.531 68.2647 301.826 73.7169 300.796 79.9364C300.252 83.2169 299.616 86.7124 298.9 90.1847C297.361 97.6781 295.445 105.057 293.281 109.906C292.895 110.781 292.496 111.572 292.09 112.27C291.78 112.803 291.454 113.329 291.113 113.847C290.01 115.547 288.773 117.158 287.49 118.662C287.44 118.727 287.383 118.789 287.325 118.854C287.119 119.099 286.904 119.341 286.69 119.583C285.64 120.769 284.568 121.874 283.53 122.887C282.266 124.122 281.048 125.216 279.956 126.148H267.723L267.673 126.125L265.911 125.342C265.911 125.342 266.413 124.751 267.252 123.635C267.424 123.408 267.608 123.159 267.807 122.887C268.052 122.553 268.317 122.184 268.6 121.785C269.19 120.949 269.86 119.967 270.58 118.854C271.974 116.701 273.564 114.054 275.169 110.988C275.353 110.632 275.54 110.271 275.728 109.906C275.731 109.895 275.739 109.883 275.743 109.872C276.061 109.25 276.375 108.609 276.689 107.957C279.351 102.409 280.113 97.8047 280.332 96.3123C280.638 94.202 281.063 91.2513 280.948 88.0053C280.871 85.8645 280.561 83.6006 279.822 81.3522V81.3485C279.669 80.8765 279.497 80.4046 279.301 79.9364C278.953 79.0962 278.539 78.2673 278.049 77.4501C275.885 73.8512 274.127 73.7015 272.729 69.7801C272.315 68.6176 271.377 65.9932 271.664 63.2229V63.2192C271.699 62.8776 271.756 62.5324 271.833 62.1869V62.1831C271.852 62.0872 271.879 61.9876 271.905 61.8916C272.124 61.0437 272.484 60.2033 273.031 59.4052C274.1 57.8552 275.559 56.9342 276.865 56.3857L276.869 56.3817C278.378 55.7526 279.681 55.6183 279.933 55.5952C285.529 55.0965 289.869 59.8081 292.24 62.3827C293.155 63.3764 293.994 64.2091 294.76 64.8881C300.723 70.2215 302.359 66.8142 302.784 65.0531C302.849 64.7807 302.884 64.5467 302.903 64.3931Z" fill="#003366"/>
<path d="M302.922 64.1953C302.922 64.2144 302.918 64.2796 302.903 64.3872C302.91 64.3295 302.914 64.2719 302.918 64.2182C302.918 64.2067 302.918 64.1991 302.922 64.1953Z" fill="#003366"/>
<path d="M272.503 145.156H67.1883C65.2807 145.156 63.7258 146.71 63.7258 148.621C63.7258 150.536 65.2807 152.089 67.1883 152.089H272.503C274.41 152.089 275.961 150.536 275.961 148.621C275.961 146.71 274.41 145.156 272.503 145.156Z" fill="#E6E6E6"/>
<path d="M226.94 163.066H112.748C110.84 163.066 109.289 164.62 109.289 166.531C109.289 168.442 110.84 170 112.748 170H226.94C228.847 170 230.402 168.442 230.402 166.531C230.402 164.62 228.847 163.066 226.94 163.066Z" fill="#E6E6E6"/>
<path d="M90.0347 31.1856L102.974 25.7305L108.524 37.1281L94.9267 42.6879L90.0347 31.1856Z" fill="#FFB6B6"/>
<path opacity="0.1" d="M90.0347 31.1856L102.974 25.7305L108.524 37.1281L94.9267 42.6879L90.0347 31.1856Z" fill="black"/>
<path d="M91.8742 26.8424L104.639 41.576C104.639 41.576 95.7592 69.6531 86.8792 72.155C77.9991 74.6569 61.6265 86.8886 61.6265 86.8886L41.0913 73.545L51.0814 58.8114C51.0814 58.8114 75.2241 25.7305 81.6066 25.7305C87.9892 25.7305 91.8742 26.8424 91.8742 26.8424Z" fill="#003366"/>
<path d="M74.6274 122.885H44.9125L43.0338 120.369L35.3636 110.097L33.5987 107.735C33.5987 107.735 26.9386 95.5029 28.3262 84.3833C29.7137 73.2636 44.1438 70.7617 44.1438 70.7617H44.7376L62.4034 86.3125L61.3489 100.785L66.9434 110.097L74.6274 122.885Z" fill="#2F2E41"/>
<path d="M50.9983 122.889H43.0339V111.074L50.9983 122.889Z" fill="#2F2E41"/>
<path d="M222.778 104.953L221.787 110.101L219.328 122.889H169.936C170.321 120.023 170.849 115.897 171.412 111.444C171.467 110.999 171.526 110.551 171.581 110.101C172.994 98.9064 174.539 86.2383 174.539 86.2383L181.033 87.0278L193.631 88.5568L198.765 89.1795L212.513 90.8502C219.367 91.6814 224.082 98.1586 222.778 104.953Z" fill="#F2F2F2"/>
<path d="M292.678 122.886H265.888C266.296 122.405 266.526 122.127 266.526 122.127L274.557 120.798L291.104 118.062C291.104 118.062 291.859 120.017 292.678 122.886Z" fill="#2F2E41"/>
<path d="M179.042 36.7461L190.692 53.2516L170.37 53.8596L168.188 38.3483L179.042 36.7461Z" fill="#A0616A"/>
<path opacity="0.1" d="M179.042 36.7461L190.692 53.2516L170.37 53.8596L168.188 38.3483L179.042 36.7461Z" fill="black"/>
<path d="M121.586 70.9418C120.091 66.6218 116.654 63.8927 113.91 64.8462C111.166 65.7997 110.154 70.0741 111.65 74.3955C112.224 76.1299 113.204 77.7014 114.508 78.9785L121.073 97.2024L129.544 93.934L122.173 76.3155C122.409 74.503 122.207 72.6603 121.586 70.9418Z" fill="#A0616A"/>
<path d="M200.449 62.5332L200.433 79.3544L198.871 85.5675L195.657 98.3468L193.318 110.1L191.575 118.857L190.954 121.984C190.485 122.299 190.019 122.599 189.552 122.888H148.962C146.656 121.501 145.366 120.422 145.366 120.422C145.366 120.422 146.004 119.822 146.734 118.857C147.966 117.228 149.456 114.559 148.543 112.01C148.352 111.476 148.302 110.826 148.36 110.1C148.732 105.313 153.744 97.2181 153.744 97.2181L152.706 85.2033L152.251 79.9382L155.459 54.2656L165.918 48.1748L167.724 47.9998L185.548 47.0352L192.915 47.4605L193.251 47.5522L200.449 62.5332Z" fill="#CCCCCC"/>
<path d="M201.241 122.888H192.361L191.969 118.857L191.961 118.776L194.475 118.604L201.016 118.156L201.13 120.569L201.218 122.421L201.241 122.888Z" fill="#FFB6B6"/>
<path d="M203.427 66.5993L207.157 88.5245L204.113 110.099L203.638 113.458L202.8 119.387L202.542 121.211L202.551 121.408L202.614 122.887H192.069L191.681 118.856L191.647 118.495L190.854 110.238L190.84 110.099L189.156 92.5915L192.458 79.9373L192.702 79.006V79.0033L194.139 57.3366L193.026 47.4902L193.015 47.3984C193.037 47.4124 193.057 47.4263 193.079 47.4401C193.137 47.4763 193.195 47.5124 193.251 47.5513C199.733 51.6712 203.596 58.899 203.427 66.5993Z" fill="#CCCCCC"/>
<path d="M159.237 58.4673L155.182 54.2656C155.182 54.2656 146.501 58.186 146.068 60.361C145.636 62.536 130.309 94.4807 130.309 94.4807L123.641 76.6397L114.961 82.445C114.961 82.445 121.925 110.144 128.439 111.445C134.952 112.745 156.783 78.6599 156.783 78.6599L159.237 58.4673Z" fill="#CCCCCC"/>
<path d="M323.892 109.906H8.10463C3.63489 109.906 0 113.551 0 118.029C0 122.507 3.63489 126.148 8.10463 126.148H323.892C328.361 126.148 332 122.507 332 118.029C332 113.551 328.361 109.906 323.892 109.906Z" fill="#E6E6E6"/>
<path d="M198.601 85.1559L197.987 113.857C197.928 116.635 195.662 118.856 192.888 118.856H140.185C137.476 118.856 135.24 116.735 135.092 114.026L133.526 85.3254C133.366 82.3985 135.692 79.9375 138.618 79.9375H193.502C196.362 79.9375 198.662 82.2921 198.601 85.1559Z" fill="#3F3D56"/>
<path d="M113.519 38.1111C120.483 38.1111 126.129 32.4557 126.129 25.4794C126.129 18.5031 120.483 12.8477 113.519 12.8477C106.555 12.8477 100.91 18.5031 100.91 25.4794C100.91 32.4557 106.555 38.1111 113.519 38.1111Z" fill="#FFB6B6"/>
<path d="M92.4292 58.5325L93.8167 73.5441L103.252 111.629L95.1005 114.491L81.3291 72.9881L79.427 56.3086L92.4292 58.5325Z" fill="#FFB6B6"/>
<path d="M88.6761 85.1559L88.0621 113.857C88.0027 116.635 85.7374 118.856 82.9633 118.856H30.2597C27.5512 118.856 25.3151 116.735 25.1673 114.026L23.601 85.3254C23.4413 82.3985 25.7674 79.9375 28.6934 79.9375H83.5772C86.4367 79.9375 88.7373 82.2921 88.6761 85.1559Z" fill="#3F3D56"/>
<path d="M104.754 119.051C110.254 119.051 114.713 117.076 114.713 114.639C114.713 112.202 110.254 110.227 104.754 110.227C99.2544 110.227 94.7959 112.202 94.7959 114.639C94.7959 117.076 99.2544 119.051 104.754 119.051Z" fill="#FFB6B6"/>
<path d="M72.8655 60.8252L78.5543 30.453C78.5543 30.453 94.3719 28.2291 94.9269 33.5109C95.4819 38.7928 94.5303 64.6058 94.5303 64.6058L72.8655 60.8252Z" fill="#003366"/>
<path d="M108.429 27.4678C108.429 27.4678 116.229 24.679 119.52 23.1785C122.81 21.678 129.347 32.1439 129.492 26.6165C129.638 21.0891 127.379 18.7712 127.379 18.7712C127.379 18.7712 126.815 6.67922 114.654 8.191C114.654 8.191 117.329 2.14125 108.548 1.20577C99.7679 0.270284 86.1078 21.5109 87.3312 24.6852C88.5545 27.8595 90.0211 30.4839 86.5503 33.8779C83.0795 37.2719 76.5803 56.427 81.5251 61.5814C86.47 66.7359 86.7944 68.9727 83.4065 72.1794C80.0185 75.3861 72.0102 82.3588 80.669 83.5692C89.3278 84.7797 79.8768 83.8756 86.3321 78.1875C92.7873 72.4994 102.207 72.7317 98.6898 63.6056C95.1727 54.4795 101.283 41.4018 100.519 39.4179C99.7541 37.434 102.232 24.8358 102.232 24.8358C102.232 24.8358 107.998 23.9871 108.429 27.4678Z" fill="#2F2E41"/>
<path d="M172.812 42.7198C180.393 42.7198 186.539 36.5635 186.539 28.9693C186.539 21.3751 180.393 15.2188 172.812 15.2188C165.231 15.2188 159.086 21.3751 159.086 28.9693C159.086 36.5635 165.231 42.7198 172.812 42.7198Z" fill="#A0616A"/>
<path d="M173.908 10.4814C173.511 10.7136 172.979 10.3622 172.851 9.91954C172.724 9.47684 172.872 9.00682 173.019 8.57031L173.76 6.37286C174.285 4.81438 174.843 3.20145 175.98 2.01525C177.697 0.224862 180.426 -0.230603 182.882 0.0993652C186.037 0.523111 189.149 2.23423 190.616 5.06378C192.083 7.89334 191.458 11.8416 188.808 13.6069C192.585 17.9439 193.902 22.7773 193.694 28.5292C193.486 34.281 187.229 39.5746 183.148 43.6266C182.237 43.0732 181.409 40.48 181.91 39.5379C182.411 38.5958 181.693 37.5044 182.314 36.6367C182.934 35.7689 183.453 37.1506 182.826 36.2878C182.43 35.7433 183.975 34.4908 183.387 34.1649C180.54 32.5887 179.594 29.0346 177.806 26.3129C175.65 23.03 171.959 20.8068 168.053 20.438C165.902 20.2348 163.63 20.6028 161.866 21.854C160.103 23.1052 158.961 25.3412 159.37 27.4669C158.311 26.3896 157.784 24.8109 157.983 23.3122C158.181 21.8134 159.102 20.4275 160.405 19.6647C159.613 17.0398 160.291 14.0203 162.131 11.989C163.97 9.95767 171.43 10.3036 174.115 10.8382L173.908 10.4814Z" fill="#2F2E41"/>
<path d="M174.325 20.5195C177.881 20.9041 180.449 23.99 182.617 26.8399C183.867 28.4824 185.176 30.2964 185.144 32.3614C185.113 34.4492 183.719 36.24 183.053 38.2186C181.965 41.4527 183.025 45.3005 185.617 47.5165C183.056 48.0032 180.288 46.08 179.846 43.5072C179.332 40.5121 181.598 37.6214 181.33 34.5942C181.093 31.9272 178.995 29.8746 177.212 27.8805C175.428 25.8864 173.753 23.2403 174.574 20.6921L174.325 20.5195Z" fill="#2F2E41"/>
<path d="M227.49 111.645C223.967 113.652 222.146 117.099 223.421 119.345C224.697 121.59 228.586 121.783 232.109 119.775C233.527 118.992 234.738 117.88 235.64 116.533L250.457 107.84L246.237 100.961L232.078 110.261C230.46 110.348 228.887 110.823 227.49 111.645Z" fill="#FFB6B6"/>
<path d="M277.66 47.8991C277.217 47.7233 273.332 46.2494 269.784 48.1954C265.71 50.4309 265.081 55.534 264.86 57.3239C264.35 61.4585 265.852 62.3853 266.169 66.571C266.762 74.4022 268.327 65.4684 265.829 69.043C264.964 70.2803 256.132 89.4544 251.261 93.2101C241.788 100.515 235.772 105.659 235.772 105.659L242.64 113.132C242.64 113.132 253.492 110.235 263.083 103.996C272.922 97.5963 277.842 94.3963 281.648 88.1364C281.976 87.5973 289.818 74.2561 285.606 59.5039C284.645 56.1389 282.885 49.9736 277.66 47.8991Z" fill="#003366"/>
<path d="M313.122 85.1559L312.508 113.857C312.449 116.635 310.183 118.856 307.409 118.856H254.706C251.997 118.856 249.761 116.735 249.613 114.026L248.047 85.3254C247.887 82.3985 250.213 79.9375 253.139 79.9375H308.023C310.883 79.9375 313.183 82.2921 313.122 85.1559Z" fill="#3F3D56"/>
</g>
<defs>
<clipPath id="clip0_1647_24222">
<rect width="332" height="170" fill="white"/>
</clipPath>
</defs>
</svg>
