<svg width="135" height="123" viewBox="0 0 135 123" fill="none" xmlns="http://www.w3.org/2000/svg">
<g clip-path="url(#clip0_1647_24265)">
<path d="M64.8881 24.6448C66.3911 23.1107 68.3985 22.645 69.3717 23.6045C70.345 24.564 69.9154 26.5851 68.4117 28.1195C67.8194 28.7407 67.0874 29.2106 66.2769 29.4899L59.8271 35.9092L56.8882 32.8091L63.5586 26.81C63.823 25.9921 64.2789 25.2497 64.8881 24.6448Z" fill="#FFB6B6"/>
<path d="M44.2606 19.3475L51.0232 34.3947L61.822 28.5319L65.6867 30.5891C65.6867 30.5891 56.8589 45.3917 50.8145 43.7066C44.7702 42.0216 34.0369 26.7424 35.9708 22.0268C37.9047 17.3112 44.2606 19.3475 44.2606 19.3475Z" fill="#E6E6E6"/>
<path d="M75.6087 27.8446C74.0388 26.3796 73.5199 24.3795 74.4497 23.3776C75.3795 22.3757 77.4054 22.7513 78.9757 24.2171C79.611 24.794 80.0992 25.5151 80.3997 26.3201L86.9732 32.6119L83.9637 35.643L77.8029 29.1186C76.9805 28.8758 76.2281 28.4389 75.6087 27.8446Z" fill="#A0616A"/>
<path d="M108.721 28.8128L96.0328 42.3619C96.0328 42.3619 93.1835 45.1896 88.4956 41.1117C83.8078 37.0339 78.5959 30.3437 78.5959 30.3437L81.5199 27.1519L86.699 31.7864C86.699 31.7864 89.7739 33.0273 89.9877 33.8303C90.2014 34.6333 89.6038 34.9654 90.5644 34.7081C91.5251 34.4508 91.5438 33.8768 91.6041 34.7473C91.6643 35.6178 91.0775 36.6352 92.1874 35.6498C93.2973 34.6643 93.6284 35.2638 93.6284 35.2638L101.738 24.4895C101.738 24.4895 106.978 20.3333 108.485 24.0589C109.991 27.7845 108.721 28.8128 108.721 28.8128Z" fill="#003366"/>
<path d="M41.2952 119.632L46.2262 119.631L48.5719 100.555L41.2942 100.555L41.2952 119.632Z" fill="#FFB6B6"/>
<path d="M58.1895 119.521C58.343 119.781 58.424 120.618 58.424 120.919C58.424 121.847 57.6747 122.598 56.7504 122.598H41.4797C40.8492 122.598 40.338 122.085 40.338 121.453V120.815C40.338 120.815 39.5825 118.899 41.1378 116.536C41.1378 116.536 43.0708 118.386 45.9593 115.489L46.811 113.941L52.9767 118.464L56.3942 118.886C57.1419 118.978 57.8049 118.872 58.1895 119.521Z" fill="#2F2E41"/>
<path d="M98.1271 31.5977H110.347V13.4871H98.1271V31.5977Z" fill="#2F2E41"/>
<path d="M107.604 26.0739L107.176 20.8867H101.486L100.225 26.3824L107.604 26.0739Z" fill="#A0616A"/>
<path opacity="0.1" d="M107.604 26.0739L107.176 20.8867H101.486L100.225 26.3824L107.604 26.0739Z" fill="black"/>
<path d="M45.0265 20.3131L45.1262 13.6424L41.0249 11.0781L36.5652 16.5496L45.0265 20.3131Z" fill="#FFB6B6"/>
<path opacity="0.1" d="M45.0265 20.3131L45.292 13.8086L41.0249 11.0781L42.4746 19.1277L45.0265 20.3131Z" fill="black"/>
<path d="M103.435 22.5395C106.87 22.5395 109.655 19.7465 109.655 16.301C109.655 12.8556 106.87 10.0625 103.435 10.0625C99.9998 10.0625 97.2151 12.8556 97.2151 16.301C97.2151 19.7465 99.9998 22.5395 103.435 22.5395Z" fill="#A0616A"/>
<path d="M101.866 9.73782C101.866 9.73782 101.866 7.17673 104.237 7.72553C106.608 8.27434 107.338 9.18901 107.338 9.18901C107.338 9.18901 108.25 10.6525 109.709 10.8354C111.168 11.0184 112.445 15.2259 112.262 16.1405C112.08 17.0552 111.168 19.4334 112.445 20.531C113.721 21.6286 115.545 23.275 114.998 24.9214C114.451 26.5678 112.809 30.7754 112.809 30.7754C112.809 30.7754 117.388 31.4466 117.014 34.3123C117.014 34.3123 114.816 32.6047 111.897 32.6047C108.979 32.6047 109.344 27.2945 109.344 27.2945C109.344 27.2945 109.162 24.0068 108.614 23.0921C108.067 22.1774 108.797 17.0552 106.061 14.3112C103.325 11.5672 101.866 9.73782 101.866 9.73782Z" fill="#2F2E41"/>
<path d="M102.596 9.1875C102.596 9.1875 99.1301 9.91924 97.8534 13.395C96.5767 16.8708 97.2215 17.5175 97.2215 17.5175C97.2215 17.5175 96.9392 19.6105 95.39 20.3444C93.8409 21.0783 95.1176 24.1882 95.1176 24.1882C95.1176 24.1882 94.7528 27.2981 89.8283 28.3957C84.9038 29.4933 96.0037 37.9103 96.0037 37.9103C96.0037 37.9103 95.2057 33.9377 100.313 33.7548C105.419 33.5719 99.3125 24.1882 99.3125 24.1882L98.7654 18.1513C98.7654 18.1513 99.8597 11.1998 103.143 10.2851C106.426 9.37043 102.596 9.1875 102.596 9.1875Z" fill="#2F2E41"/>
<path d="M45.0394 15.7177C49.0678 15.7177 52.3334 12.4423 52.3334 8.40181C52.3334 4.36136 49.0678 1.08594 45.0394 1.08594C41.011 1.08594 37.7454 4.36136 37.7454 8.40181C37.7454 12.4423 41.011 15.7177 45.0394 15.7177Z" fill="#FFB6B6"/>
<path d="M54.987 64.4224L48.1923 110.798H39.6674L40.801 84.3257L41.3976 70.4064L39.6674 63.7808C39.6674 63.7808 38.8786 62.3081 38.214 60.5229C37.4649 58.5083 36.8733 56.0931 37.7516 54.9478C38.0748 54.5256 38.915 54.2131 40.0569 53.9804C40.7546 53.8375 41.5666 53.7261 42.4433 53.6397C47.4846 53.1394 54.6556 53.4519 54.6556 53.4519L54.8379 59.4857L54.939 62.855L54.987 64.4224Z" fill="#2F2E41"/>
<path d="M13.2197 112.243L17.5637 114.583L28.6318 98.8918L22.2206 95.4375L13.2197 112.243Z" fill="#FFB6B6"/>
<path d="M28.155 120.165C28.1679 120.467 27.8443 121.242 27.7019 121.508C27.2645 122.325 26.2498 122.631 25.4356 122.192L11.9834 114.943C11.428 114.644 11.2196 113.95 11.518 113.393L11.8189 112.831C11.8189 112.831 12.0578 110.784 14.5426 109.441C14.5426 109.441 15.3726 111.988 19.2841 110.807L20.7647 109.848L24.0619 116.759L26.8734 118.753C27.4885 119.19 28.1228 119.41 28.155 120.165Z" fill="#2F2E41"/>
<path d="M54.9387 62.857L51.3326 70.1092L40.8007 84.3277L23.4626 107.737L15.9536 103.691L36.5366 68.9307L38.1409 62.2719C38.1409 62.2719 38.1409 61.5522 38.2138 60.5249C38.3563 58.492 38.7839 55.2524 40.0566 53.9825C40.229 53.8096 40.4163 53.6733 40.6201 53.5819C41.0029 53.409 41.6393 53.4506 42.4431 53.6417C45.8007 54.4462 52.0667 57.902 54.8376 59.4877L54.9387 62.857Z" fill="#2F2E41"/>
<path d="M107.141 120.211L102.901 120.211L100.884 103.809L107.142 103.809L107.141 120.211Z" fill="#A0616A"/>
<path d="M92.615 120.114C92.483 120.337 92.4133 121.057 92.4133 121.316C92.4133 122.113 93.0576 122.76 93.8523 122.76H106.982C107.524 122.76 107.964 122.319 107.964 121.775V121.227C107.964 121.227 108.613 119.579 107.276 117.548C107.276 117.548 105.614 119.138 103.131 116.647L102.398 115.316L97.097 119.205L94.1586 119.568C93.5157 119.647 92.9457 119.556 92.615 120.114Z" fill="#2F2E41"/>
<path d="M123.843 115.202L119.924 116.823L111.821 102.433L117.606 100.039L123.843 115.202Z" fill="#A0616A"/>
<path d="M110.379 120.67C110.341 120.927 110.551 121.619 110.649 121.858C110.953 122.595 111.794 122.946 112.528 122.642L124.666 117.619C125.167 117.411 125.405 116.836 125.199 116.333L124.99 115.826C124.99 115.826 124.964 114.054 122.955 112.689C122.955 112.689 122.024 114.795 118.781 113.442L117.598 112.492L114.176 118.115L111.598 119.575C111.034 119.894 110.472 120.027 110.379 120.67Z" fill="#2F2E41"/>
<path d="M109.086 63.9489L107.356 70.5745L107.817 81.3256L108.581 99.1827L108.602 99.6864L108.688 101.694L109.086 110.966H100.561L96.7662 85.0639L93.7666 64.5905L94.0815 54.1651L94.098 53.6199C94.098 53.6199 109.345 52.955 111.002 55.1159C112.659 57.2768 109.086 63.9489 109.086 63.9489Z" fill="#2F2E41"/>
<path d="M120.947 104.3L119.502 105.05L114.157 107.824L113.375 108.23L108.688 101.694L96.7662 85.0637L93.7666 64.5902L94.0815 54.1649C95.4305 53.7343 96.5093 53.5581 97.0562 53.8141C99.5189 54.9694 99.4012 62.5424 99.4012 62.5424L100.901 69.2245L107.817 81.3253L120.947 104.3Z" fill="#2F2E41"/>
<path d="M90.1232 106.345C90.0135 106.008 89.1821 106.156 89.1023 105.855C89.0227 105.555 89.8205 105.304 90.4324 104.458C90.5428 104.305 91.2381 103.344 90.9714 102.94C90.4659 102.174 86.9488 104.082 86.1045 103.011C85.9193 102.776 85.843 102.373 85.2911 101.622C85.0715 101.324 84.9306 101.179 84.7623 101.184C84.5235 101.19 84.438 101.489 84.0626 102.032C83.4997 102.846 83.2965 102.744 82.9257 103.411C82.6504 103.906 82.6178 104.223 82.4192 104.241C82.1383 104.268 82.0222 103.651 81.679 103.627C81.3287 103.603 80.9781 104.212 80.8044 104.688C80.4783 105.581 80.6802 106.264 80.725 106.944C80.7736 107.684 80.6594 108.766 79.8585 110.155L72.304 122.227C73.9264 119.766 78.5318 113.055 80.3872 110.594C80.9229 109.883 81.4985 109.169 82.3845 109.035C83.2375 108.906 84.2754 109.329 85.724 109.305C85.8932 109.302 86.364 109.288 86.4786 109.037C86.5732 108.83 86.3381 108.65 86.4237 108.456C86.5384 108.195 87.0545 108.307 87.7579 108.134C88.2538 108.012 88.5908 107.81 88.8805 107.636C88.9679 107.584 90.2693 106.793 90.1232 106.345Z" fill="#F2F2F2"/>
<path d="M70.3365 109.162C70.1401 109.119 69.9727 109.571 69.8023 109.523C69.6325 109.476 69.7396 109.01 69.5024 108.465C69.4596 108.367 69.19 107.747 68.9152 107.762C68.3945 107.79 68.3134 110.072 67.5458 110.178C67.3774 110.202 67.158 110.123 66.6313 110.178C66.4218 110.2 66.3106 110.228 66.2641 110.312C66.1982 110.431 66.3202 110.56 66.4775 110.901C66.7135 111.413 66.6048 111.484 66.8242 111.859C66.9871 112.137 67.1325 112.244 67.0844 112.347C67.0162 112.493 66.681 112.373 66.5703 112.535C66.4573 112.7 66.6542 113.048 66.837 113.271C67.18 113.689 67.5723 113.787 67.9181 113.961C68.2939 114.151 68.7906 114.519 69.2392 115.314L72.967 122.516C72.2308 121.008 70.2756 116.804 69.6064 115.181C69.4133 114.712 69.2302 114.223 69.4201 113.748C69.603 113.29 70.1096 112.902 70.5155 112.181C70.5629 112.097 70.6919 111.862 70.6025 111.733C70.5285 111.627 70.3726 111.69 70.3021 111.592C70.2076 111.46 70.4113 111.239 70.5294 110.842C70.6127 110.563 70.6111 110.339 70.6098 110.146C70.6094 110.088 70.5979 109.219 70.3365 109.162Z" fill="#F2F2F2"/>
<path d="M74.0554 110.918L74.1726 109.833L74.2445 109.765C74.577 109.45 74.7849 109.116 74.863 108.772C74.8754 108.718 74.885 108.662 74.8948 108.606C74.9338 108.383 74.9821 108.106 75.1959 107.818C75.3156 107.657 75.6322 107.294 75.9587 107.421C76.0468 107.454 76.1063 107.512 76.1476 107.572C76.158 107.562 76.1686 107.551 76.18 107.54C76.321 107.402 76.4197 107.352 76.5147 107.304C76.5878 107.266 76.6632 107.228 76.7908 107.125C76.8468 107.081 76.8916 107.04 76.9294 107.006C77.044 106.904 77.1905 106.783 77.3912 106.831C77.604 106.889 77.677 107.093 77.7254 107.228C77.8118 107.468 77.8385 107.633 77.8561 107.743C77.8624 107.783 77.8698 107.828 77.8753 107.843C77.9219 107.961 78.5066 107.991 78.7266 108.004C79.221 108.031 79.6489 108.054 79.7518 108.394C79.8257 108.637 79.6718 108.902 79.2813 109.202C79.1596 109.296 79.038 109.36 78.9321 109.408C78.9972 109.47 79.0492 109.554 79.0523 109.669C79.0595 109.94 78.7824 110.148 78.2288 110.288C78.0913 110.323 77.9062 110.37 77.6641 110.358C77.5501 110.352 77.4502 110.335 77.365 110.318C77.3523 110.367 77.329 110.418 77.2871 110.466C77.1638 110.607 76.9649 110.643 76.6948 110.563C76.3966 110.48 76.161 110.367 75.9531 110.267C75.7715 110.18 75.615 110.106 75.4836 110.086C75.2392 110.051 75.0114 110.203 74.7387 110.404L74.0554 110.918Z" fill="#F2F2F2"/>
<path d="M76.0054 104.741L74.9293 104.902L74.8453 104.85C74.457 104.607 74.0823 104.49 73.731 104.502C73.6752 104.504 73.6195 104.508 73.5627 104.513C73.3377 104.532 73.0579 104.555 72.7259 104.421C72.5407 104.345 72.1106 104.13 72.15 103.781C72.1596 103.688 72.1998 103.615 72.2479 103.56C72.2351 103.552 72.2222 103.545 72.2084 103.537C72.04 103.435 71.9664 103.352 71.8955 103.272C71.841 103.21 71.7849 103.147 71.6538 103.049C71.5963 103.006 71.5459 102.973 71.5036 102.945C71.3756 102.86 71.2225 102.748 71.2175 102.541C71.2198 102.32 71.3977 102.198 71.5154 102.116C71.7253 101.972 71.878 101.904 71.9792 101.859C72.0163 101.843 72.0579 101.824 72.0706 101.815C72.1724 101.74 72.0534 101.165 72.0099 100.948C71.9104 100.462 71.8243 100.041 72.1258 99.8547C72.3413 99.7214 72.6359 99.8035 73.0249 100.106C73.1459 100.2 73.239 100.302 73.3124 100.393C73.3554 100.314 73.4233 100.242 73.5329 100.21C73.7924 100.134 74.0632 100.35 74.3388 100.852C74.4077 100.976 74.4996 101.144 74.5496 101.382C74.5731 101.494 74.5815 101.595 74.5874 101.682C74.6375 101.682 74.6922 101.692 74.7492 101.72C74.9169 101.804 75.002 101.988 74.9936 102.27C74.9889 102.581 74.9393 102.838 74.896 103.065C74.8584 103.263 74.8265 103.434 74.8403 103.566C74.8692 103.812 75.073 103.995 75.3363 104.208L76.0054 104.741Z" fill="#F2F2F2"/>
<path d="M76.1506 101.496L76.2678 100.411L76.3397 100.343C76.6722 100.028 76.8802 99.6941 76.9582 99.3505C76.9706 99.2958 76.9802 99.2406 76.9901 99.1843C77.029 98.9612 77.0773 98.6839 77.2911 98.3958C77.4108 98.2353 77.7274 97.8726 78.0539 97.9993C78.142 98.0324 78.2015 98.0897 78.2428 98.1505C78.2532 98.1399 78.2638 98.1294 78.2752 98.118C78.4162 97.9805 78.5149 97.9302 78.61 97.8817C78.683 97.8443 78.7584 97.806 78.886 97.7036C78.942 97.6587 78.9868 97.6183 79.0246 97.5843C79.1392 97.4817 79.2857 97.3616 79.4865 97.4092C79.6993 97.4675 79.7722 97.6711 79.8206 97.8059C79.907 98.0463 79.9337 98.2116 79.9513 98.3212C79.9576 98.3613 79.965 98.4064 79.9706 98.4211C80.0171 98.5388 80.6018 98.5693 80.8218 98.582C81.3163 98.6089 81.7441 98.6322 81.847 98.9718C81.9209 99.2147 81.767 99.4797 81.3765 99.7803C81.2548 99.8738 81.1332 99.9384 81.0273 99.9866C81.0924 100.048 81.1444 100.132 81.1475 100.247C81.1547 100.518 80.8776 100.726 80.324 100.866C80.1865 100.901 80.0014 100.948 79.7593 100.936C79.6453 100.93 79.5454 100.913 79.4602 100.896C79.4475 100.945 79.4242 100.996 79.3823 101.044C79.2591 101.185 79.0601 101.221 78.79 101.141C78.4918 101.058 78.2562 100.945 78.0483 100.845C77.8667 100.758 77.7102 100.684 77.5788 100.664C77.3344 100.63 77.1066 100.781 76.8339 100.982L76.1506 101.496Z" fill="#F2F2F2"/>
<path d="M72.661 122.289L72.4707 122.101L72.2063 122.073C72.2075 122.048 72.2058 121.989 72.2039 121.898C72.1937 121.399 72.1621 119.88 72.373 117.546C72.5203 115.916 72.7664 114.262 73.1044 112.629C73.4431 110.993 73.7946 109.776 74.0768 108.797C74.2899 108.06 74.5049 107.36 74.7148 106.678C75.275 104.857 75.8039 103.136 76.1315 101.174C76.2048 100.735 76.357 99.8235 76.0454 98.7472C75.8645 98.1229 75.5549 97.5353 75.1248 97.0013L75.5411 96.6641C76.0157 97.2542 76.3581 97.905 76.5589 98.5981C76.9045 99.7915 76.7386 100.785 76.6589 101.263C76.3256 103.26 75.7914 104.997 75.2257 106.836C75.0169 107.515 74.8025 108.212 74.5904 108.947C74.3107 109.916 73.9624 111.123 73.6281 112.738C73.2939 114.351 73.0509 115.985 72.9053 117.594C72.6972 119.899 72.7284 121.395 72.7387 121.887C72.744 122.149 72.7451 122.204 72.661 122.289Z" fill="#F2F2F2"/>
<path d="M73.9829 97.6176C73.9615 97.6128 73.9399 97.6075 73.9183 97.601C73.4793 97.4776 73.1271 97.1187 72.8713 96.5345C72.7516 96.2599 72.7233 95.9708 72.6669 95.3942C72.6581 95.3053 72.619 94.8555 72.667 94.2594C72.6983 93.8698 72.74 93.7134 72.8457 93.5905C72.9631 93.4537 73.1212 93.3753 73.2883 93.3359C73.2929 93.2844 73.3097 93.2339 73.3431 93.1861C73.4805 92.9878 73.7106 93.0693 73.8355 93.1117C73.8984 93.1344 73.9768 93.1632 74.0649 93.178C74.2035 93.2021 74.2862 93.1777 74.4115 93.1413C74.5313 93.1064 74.6803 93.063 74.8863 93.0667C75.2927 93.0723 75.5935 93.2555 75.6927 93.3158C76.2152 93.6306 76.3956 94.133 76.6044 94.7147C76.6458 94.8312 76.7835 95.2527 76.8156 95.7954C76.8387 96.1869 76.7875 96.3471 76.7289 96.4617C76.6091 96.6973 76.4257 96.8065 75.9704 97.0363C75.4947 97.277 75.2561 97.3975 75.0604 97.4594C74.6051 97.6028 74.3192 97.6928 73.9829 97.6176Z" fill="#F2F2F2"/>
<path d="M135 122.804C135 122.912 134.913 123 134.805 123H0V122.609H134.805C134.913 122.609 135 122.697 135 122.804Z" fill="#E6E6E6"/>
<path d="M37.5029 15.1367L45.7891 19.126C45.7891 19.126 54.5726 45.2227 54.5726 46.5525C54.5726 47.8822 57.0584 48.7133 55.5669 50.2093C54.0754 51.7053 58.3431 52.9722 56.0435 54.1672C53.7439 55.3622 39.399 61.8984 37.8039 61.309C33.4045 59.6833 37.9903 53.7098 37.9903 53.7098C37.9903 53.7098 34.6856 51.0404 35.1828 49.7107C35.6799 48.3809 32.1997 22.9491 32.1997 22.9491L37.5029 15.1367Z" fill="#E6E6E6"/>
<path d="M44.5939 10.1548L45.532 12.0367C45.532 12.0367 46.4702 8.6492 47.9713 7.89642C49.4723 7.14365 49.66 6.01448 49.66 6.01448C49.66 6.01448 51.5363 8.46101 52.8497 7.89642C54.1631 7.33184 54.726 6.95545 53.225 4.69712C51.7239 2.43879 52.0992 3.56795 52.0992 3.56795C52.0992 3.56795 50.7857 1.68601 50.9734 2.25059C51.161 2.81518 49.8476 0.745039 49.8476 1.30962C49.8476 1.8742 48.9094 0.180455 48.9094 0.745039C48.9094 1.30962 44.9691 -0.572321 45.532 0.180457C46.0949 0.933236 42.1546 -1.3251 40.2783 1.68601C38.402 4.69712 35.8002 4.14027 36.7258 6.01835C37.6515 7.89642 37.2762 12.9777 37.2762 12.9777H39.8639C39.8639 12.9777 42.5299 7.89642 44.5939 10.1548Z" fill="#2F2E41"/>
<path d="M99.8156 26.1101L99.9674 26.0671L107.439 23.9492L113.405 32.094L109.428 49.0486L110.919 55.8636C110.919 55.8636 98.8213 52.7054 94.0152 55.365C94.0152 55.365 93.6838 53.8493 94.0152 53.1112C94.3467 52.373 94.8439 49.3012 94.3467 47.9282C93.8495 46.5553 95.341 40.0726 95.341 40.0726C95.341 40.0726 94.8439 35.7509 96.9983 33.59C99.1527 31.4292 99.8156 26.1101 99.8156 26.1101Z" fill="#003366"/>
<path d="M93.0298 56.7224L66.7754 43.6358C66.6448 43.5707 66.5307 43.481 66.4362 43.3693L62.3397 38.5269C62.068 38.2058 62.0092 37.7525 62.1899 37.3723L69.8713 21.2083C70.0058 20.925 70.2564 20.7159 70.5586 20.6344C70.8611 20.5531 71.1823 20.6082 71.4403 20.7857L89.9558 33.5244C90.3359 33.7858 90.5057 34.26 90.3783 34.7042L86.6192 47.8253C86.5164 48.1842 86.6474 48.5758 86.9452 48.7998L94.3818 54.3939C94.7823 54.6952 94.9206 55.2447 94.7109 55.7005L94.4757 56.2117C94.3536 56.477 94.1351 56.6765 93.8604 56.7735C93.744 56.8147 93.6239 56.8352 93.5043 56.8352C93.3417 56.8351 93.1801 56.7973 93.0298 56.7224Z" fill="#003366"/>
<path d="M92.8201 53.5371L85.5117 47.4385C85.4487 47.3853 85.399 47.3204 85.3642 47.249C85.2979 47.1143 85.2846 46.9531 85.3343 46.8052L89.499 34.5829C89.6067 34.2671 89.4907 33.9147 89.2156 33.7252L71.8642 21.8105C71.6869 21.6875 71.4648 21.6493 71.256 21.7041C71.0456 21.759 70.8715 21.902 70.7754 22.0964L63.4603 36.9948C63.3493 37.2192 63.3576 37.4768 63.4802 37.6913C63.4951 37.7212 63.5134 37.7494 63.5349 37.776L67.214 42.6463C67.2853 42.7394 67.3781 42.8158 67.4825 42.8674L92.0197 54.7838C92.1224 54.8336 92.2335 54.8586 92.3445 54.8586C92.5367 54.8586 92.729 54.7838 92.8715 54.6391C92.8881 54.6209 92.9047 54.6042 92.9212 54.5843C93.0372 54.443 93.0969 54.2618 93.0886 54.0773C93.0787 53.8679 92.9809 53.6717 92.8201 53.5371Z" fill="#F2F2F2"/>
<path d="M66.3389 36.0828C66.3996 36.0828 66.458 36.0494 66.4871 35.9914L72.4349 24.1395C72.4761 24.0575 72.4432 23.9575 72.3614 23.9163C72.2795 23.8748 72.1801 23.908 72.1389 23.99L66.1911 35.8419C66.1499 35.9239 66.1828 36.0238 66.2646 36.065C66.2885 36.0771 66.3139 36.0828 66.3389 36.0828Z" fill="#003366"/>
<path d="M69.4876 38.0789C69.5483 38.0789 69.6067 38.0455 69.6358 37.9875L75.5836 26.1356C75.6248 26.0536 75.5918 25.9537 75.5101 25.9124C75.4281 25.8709 75.3286 25.9042 75.2876 25.9861L69.3398 37.838C69.2986 37.92 69.3315 38.0199 69.4133 38.0612C69.4372 38.0733 69.4626 38.0789 69.4876 38.0789Z" fill="#003366"/>
<path d="M72.1392 39.7391C72.1999 39.7391 72.2583 39.7056 72.2874 39.6476L78.2352 27.7958C78.2764 27.7137 78.2434 27.6138 78.1617 27.5726C78.0797 27.5311 77.9804 27.5643 77.9392 27.6463L71.9914 39.4981C71.9502 39.5802 71.9831 39.6801 72.0649 39.7213C72.0888 39.7334 72.1142 39.7391 72.1392 39.7391Z" fill="#003366"/>
<path d="M62.7521 38.1348C64.8085 37.5255 66.789 38.0958 67.1754 39.4085C67.5618 40.7212 66.208 42.279 64.1507 42.8883C63.3323 43.143 62.4649 43.1974 61.6212 43.047L52.8753 45.5186L51.8064 41.3774L60.5418 39.3805C61.1688 38.7942 61.9267 38.367 62.7521 38.1348Z" fill="#FFB6B6"/>
<path d="M47.2827 23.4591L45.9119 39.907L58.1905 40.0394L60.5735 43.7198C60.5735 43.7198 45.6912 52.3627 41.2224 47.9465C36.7537 43.5302 34.7653 24.9461 38.7384 21.765C42.7115 18.584 47.2827 23.4591 47.2827 23.4591Z" fill="#E6E6E6"/>
<path d="M87.5055 53.1549C85.3672 52.9934 83.717 51.7559 83.8197 50.391C83.9225 49.0261 85.739 48.051 87.878 48.2129C88.7333 48.2658 89.5636 48.5234 90.2993 48.9641L99.3507 49.7633L98.8863 54.0156L90.0125 52.7762C89.219 53.1015 88.3593 53.2313 87.5055 53.1549Z" fill="#A0616A"/>
<path d="M113.977 33.1813L112.498 51.7105C112.498 51.7105 112.032 55.7036 105.831 55.4533C99.6311 55.203 91.3955 53.2399 91.3955 53.2399L91.6931 48.9157L98.6236 49.2933C98.6236 49.2933 101.798 48.3374 102.465 48.8308C103.132 49.3242 102.871 49.9579 103.462 49.1554C104.052 48.3529 103.71 47.8927 104.298 48.5351C104.887 49.1774 105.062 50.3396 105.316 48.8748C105.569 47.41 106.201 47.671 106.201 47.671L105.83 34.1764C105.83 34.1764 107.337 27.6484 110.833 29.6156C114.329 31.5828 113.977 33.1813 113.977 33.1813Z" fill="#003366"/>
</g>
<defs>
<clipPath id="clip0_1647_24265">
<rect width="135" height="123" fill="white"/>
</clipPath>
</defs>
</svg>
